<svg width="49" height="36" viewBox="0 0 49 36" fill="none" xmlns="http://www.w3.org/2000/svg">
<g filter="url(#filter0_dd_157_2343)">
<rect x="7.66553" y="4.02686" width="34.108" height="21.9734" rx="3.93554" fill="white"/>
<rect x="7.58354" y="3.94487" width="34.272" height="22.1374" rx="4.01753" stroke="#D6DCE5" stroke-width="0.163981"/>
<path d="M18.6975 12.1352C18.925 11.8506 19.0794 11.4684 19.0387 11.0779C18.7056 11.0944 18.2991 11.2976 18.0638 11.5825C17.8524 11.8264 17.6654 12.2246 17.7142 12.5987C18.0881 12.6312 18.4617 12.4118 18.6975 12.1352Z" fill="#000008"/>
<path d="M19.0345 12.6718C18.4914 12.6394 18.0297 12.98 17.7704 12.98C17.5109 12.98 17.1138 12.6881 16.6843 12.696C16.1252 12.7042 15.6065 13.0203 15.3228 13.523C14.7393 14.5287 15.1688 16.0205 15.7363 16.8396C16.0118 17.2448 16.3439 17.691 16.7815 17.675C17.1949 17.6587 17.357 17.4072 17.8595 17.4072C18.3617 17.4072 18.5077 17.675 18.9453 17.6668C19.3992 17.6587 19.6829 17.2614 19.9585 16.8558C20.2746 16.3939 20.404 15.9478 20.4121 15.9233C20.404 15.9152 19.537 15.5826 19.5289 14.5853C19.5207 13.7502 20.2096 13.353 20.242 13.3283C19.853 12.753 19.2452 12.6881 19.0345 12.6718Z" fill="#000008"/>
<path d="M23.7628 11.5416C24.9431 11.5416 25.765 12.3552 25.765 13.5397C25.765 14.7285 24.9262 15.5463 23.7332 15.5463H22.4264V17.6245H21.4822V11.5416L23.7628 11.5416ZM22.4264 14.7538H23.5098C24.3318 14.7538 24.7997 14.3112 24.7997 13.544C24.7997 12.7768 24.3318 12.3384 23.514 12.3384H22.4264V14.7538Z" fill="#000008"/>
<path d="M26.0116 16.3641C26.0116 15.5884 26.606 15.1121 27.6599 15.0531L28.8739 14.9814V14.64C28.8739 14.1468 28.5408 13.8517 27.9845 13.8517C27.4575 13.8517 27.1287 14.1046 27.0486 14.5009H26.1887C26.2393 13.6999 26.9221 13.1098 28.0182 13.1098C29.0931 13.1098 29.7801 13.6788 29.7801 14.5683V17.6245H28.9075V16.8952H28.8866C28.6295 17.3884 28.0688 17.7003 27.4871 17.7003C26.6187 17.7003 26.0116 17.1608 26.0116 16.3641ZM28.8739 15.9636V15.6138L27.7821 15.6812C27.2383 15.7191 26.9306 15.9594 26.9306 16.3388C26.9306 16.7266 27.2509 16.9795 27.7399 16.9795C28.3764 16.9795 28.8739 16.5411 28.8739 15.9636Z" fill="#000008"/>
<path d="M30.604 19.2559V18.5181C30.6713 18.535 30.823 18.535 30.899 18.535C31.3205 18.535 31.5481 18.358 31.6872 17.9027C31.6872 17.8942 31.7673 17.6329 31.7673 17.6287L30.1656 13.1898H31.1518L32.2733 16.7983H32.29L33.4114 13.1898H34.3725L32.7115 17.8563C32.3323 18.9313 31.8939 19.2769 30.9749 19.2769C30.899 19.2769 30.6713 19.2685 30.604 19.2559Z" fill="#000008"/>
</g>
<defs>
<filter id="filter0_dd_157_2343" x="0.942353" y="0.583176" width="47.5544" height="35.42" filterUnits="userSpaceOnUse" color-interpolation-filters="sRGB">
<feFlood flood-opacity="0" result="BackgroundImageFix"/>
<feColorMatrix in="SourceAlpha" type="matrix" values="0 0 0 0 0 0 0 0 0 0 0 0 0 0 0 0 0 0 127 0" result="hardAlpha"/>
<feOffset dy="0.327962"/>
<feGaussianBlur stdDeviation="1.63981"/>
<feColorMatrix type="matrix" values="0 0 0 0 0.717647 0 0 0 0 0.717647 0 0 0 0 0.717647 0 0 0 0.08 0"/>
<feBlend mode="normal" in2="BackgroundImageFix" result="effect1_dropShadow_157_2343"/>
<feColorMatrix in="SourceAlpha" type="matrix" values="0 0 0 0 0 0 0 0 0 0 0 0 0 0 0 0 0 0 127 0" result="hardAlpha"/>
<feOffset dy="3.27962"/>
<feGaussianBlur stdDeviation="3.27962"/>
<feColorMatrix type="matrix" values="0 0 0 0 0.717647 0 0 0 0 0.717647 0 0 0 0 0.717647 0 0 0 0.08 0"/>
<feBlend mode="normal" in2="effect1_dropShadow_157_2343" result="effect2_dropShadow_157_2343"/>
<feBlend mode="normal" in="SourceGraphic" in2="effect2_dropShadow_157_2343" result="shape"/>
</filter>
</defs>
</svg>
