<svg width="49" height="36" viewBox="0 0 49 36" fill="none" xmlns="http://www.w3.org/2000/svg">
<g filter="url(#filter0_dd_157_2345)">
<rect x="7.55396" y="4.02686" width="34.108" height="21.9734" rx="3.93554" fill="white"/>
<rect x="7.47196" y="3.94487" width="34.272" height="22.1374" rx="4.01753" stroke="#D6DCE5" stroke-width="0.163981"/>
<path d="M23.8666 17.6469H23.0995V11.6775H25.1332C25.6487 11.6775 26.0882 11.8493 26.4478 12.1929C26.8154 12.5365 26.9992 12.9561 26.9992 13.4515C26.9992 13.959 26.8154 14.3785 26.4478 14.7181C26.0922 15.0578 25.6527 15.2256 25.1332 15.2256H23.8666V17.6469ZM23.8666 12.4127V14.4944H25.1492C25.4529 14.4944 25.7086 14.3905 25.9084 14.1867C26.1122 13.9829 26.216 13.7352 26.216 13.4555C26.216 13.1798 26.1122 12.9361 25.9084 12.7323C25.7086 12.5205 25.4569 12.4167 25.1492 12.4167H23.8666V12.4127Z" fill="#3C4043"/>
<path d="M29.0049 13.4275C29.5723 13.4275 30.0198 13.5794 30.3474 13.883C30.675 14.1867 30.8389 14.6023 30.8389 15.1297V17.6469H30.1077V17.0795H30.0757C29.7601 17.547 29.3365 17.7788 28.8091 17.7788C28.3576 17.7788 27.982 17.6469 27.6783 17.3792C27.3747 17.1115 27.2228 16.7799 27.2228 16.3803C27.2228 15.9568 27.3827 15.6211 27.7023 15.3734C28.022 15.1217 28.4495 14.9978 28.9809 14.9978C29.4364 14.9978 29.812 15.0817 30.1037 15.2495V15.0737C30.1037 14.806 29.9998 14.5823 29.788 14.3945C29.5763 14.2067 29.3285 14.1148 29.0448 14.1148C28.6173 14.1148 28.2777 14.2946 28.03 14.6582L27.3547 14.2347C27.7263 13.6952 28.2777 13.4275 29.0049 13.4275ZM28.014 16.3923C28.014 16.5921 28.0979 16.7599 28.2697 16.8917C28.4375 17.0236 28.6373 17.0915 28.865 17.0915C29.1887 17.0915 29.4764 16.9717 29.7281 16.7319C29.9798 16.4922 30.1077 16.2125 30.1077 15.8888C29.8679 15.701 29.5363 15.6052 29.1088 15.6052C28.7971 15.6052 28.5374 15.6811 28.3296 15.8289C28.1179 15.9847 28.014 16.1725 28.014 16.3923Z" fill="#3C4043"/>
<path d="M35.0103 13.5594L32.4531 19.441H31.662L32.613 17.3832L30.9268 13.5594H31.7619L32.9766 16.4922H32.9925L34.1752 13.5594H35.0103Z" fill="#3C4043"/>
<path d="M20.8151 14.7421C20.8151 14.492 20.7928 14.2526 20.7512 14.0225H17.5356V15.341L19.3875 15.3414C19.3124 15.7802 19.0707 16.1542 18.7003 16.4035V17.2589H19.8027C20.4463 16.6632 20.8151 15.7826 20.8151 14.7421Z" fill="#4285F4"/>
<path d="M18.7007 16.4035C18.3938 16.6105 17.9986 16.7316 17.5363 16.7316C16.6433 16.7316 15.8858 16.1298 15.6145 15.3187H14.4773V16.2009C15.0407 17.3189 16.1986 18.0861 17.5363 18.0861C18.4609 18.0861 19.2377 17.782 19.803 17.2586L18.7007 16.4035Z" fill="#34A853"/>
<path d="M15.5073 14.6642C15.5073 14.4364 15.5453 14.2163 15.6144 14.0093V13.1271H14.4773C14.2443 13.5894 14.1133 14.1112 14.1133 14.6642C14.1133 15.2172 14.2447 15.739 14.4773 16.2013L15.6144 15.3191C15.5453 15.1121 15.5073 14.8919 15.5073 14.6642Z" fill="#FABB05"/>
<path d="M17.5363 12.5965C18.041 12.5965 18.4929 12.7703 18.8497 13.1099L19.8266 12.1338C19.2333 11.5812 18.4597 11.2419 17.5363 11.2419C16.199 11.2419 15.0407 12.0091 14.4773 13.1271L15.6144 14.0093C15.8857 13.1982 16.6433 12.5965 17.5363 12.5965Z" fill="#E94235"/>
</g>
<defs>
<filter id="filter0_dd_157_2345" x="0.830781" y="0.583176" width="47.5544" height="35.42" filterUnits="userSpaceOnUse" color-interpolation-filters="sRGB">
<feFlood flood-opacity="0" result="BackgroundImageFix"/>
<feColorMatrix in="SourceAlpha" type="matrix" values="0 0 0 0 0 0 0 0 0 0 0 0 0 0 0 0 0 0 127 0" result="hardAlpha"/>
<feOffset dy="0.327962"/>
<feGaussianBlur stdDeviation="1.63981"/>
<feColorMatrix type="matrix" values="0 0 0 0 0.717647 0 0 0 0 0.717647 0 0 0 0 0.717647 0 0 0 0.08 0"/>
<feBlend mode="normal" in2="BackgroundImageFix" result="effect1_dropShadow_157_2345"/>
<feColorMatrix in="SourceAlpha" type="matrix" values="0 0 0 0 0 0 0 0 0 0 0 0 0 0 0 0 0 0 127 0" result="hardAlpha"/>
<feOffset dy="3.27962"/>
<feGaussianBlur stdDeviation="3.27962"/>
<feColorMatrix type="matrix" values="0 0 0 0 0.717647 0 0 0 0 0.717647 0 0 0 0 0.717647 0 0 0 0.08 0"/>
<feBlend mode="normal" in2="effect1_dropShadow_157_2345" result="effect2_dropShadow_157_2345"/>
<feBlend mode="normal" in="SourceGraphic" in2="effect2_dropShadow_157_2345" result="shape"/>
</filter>
</defs>
</svg>
