<svg width="48" height="36" viewBox="0 0 48 36" fill="none" xmlns="http://www.w3.org/2000/svg">
<g filter="url(#filter0_dd_157_2339)">
<rect x="6.88855" y="4.02686" width="34.108" height="21.9734" rx="3.93554" fill="white"/>
<rect x="6.80656" y="3.94487" width="34.272" height="22.1374" rx="4.01753" stroke="#D6DCE5" stroke-width="0.163981"/>
<path d="M26.3927 10.501H21.3708V19.5255H26.3927V10.501Z" fill="#FF5F00"/>
<path d="M21.6897 15.0133C21.6889 14.1441 21.8858 13.2862 22.2656 12.5045C22.6454 11.7227 23.1981 11.0376 23.8818 10.501C23.0351 9.8355 22.0183 9.42163 20.9475 9.3067C19.8768 9.19178 18.7953 9.38043 17.8266 9.85109C16.858 10.3218 16.0414 11.0555 15.47 11.9683C14.8987 12.8812 14.5957 13.9363 14.5957 15.0133C14.5957 16.0902 14.8987 17.1454 15.47 18.0582C16.0414 18.9711 16.858 19.7048 17.8266 20.1754C18.7953 20.6461 19.8768 20.8347 20.9475 20.7198C22.0183 20.6049 23.0351 20.191 23.8818 19.5255C23.1981 18.9889 22.6454 18.3038 22.2656 17.5221C21.8859 16.7403 21.6889 15.8824 21.6897 15.0133Z" fill="#EB001B"/>
<path d="M33.1676 15.0133C33.1676 16.0902 32.8646 17.1453 32.2933 18.0582C31.722 18.971 30.9054 19.7047 29.9368 20.1754C28.9682 20.6461 27.8867 20.8347 26.816 20.7198C25.7452 20.6049 24.7284 20.191 23.8818 19.5255C24.5649 18.9884 25.1171 18.3032 25.4968 17.5215C25.8765 16.7399 26.0738 15.8822 26.0738 15.0133C26.0738 14.1443 25.8765 13.2866 25.4968 12.505C25.1171 11.7233 24.5649 11.0381 23.8818 10.501C24.7284 9.83549 25.7452 9.42163 26.816 9.3067C27.8867 9.19178 28.9682 9.38043 29.9368 9.8511C30.9054 10.3218 31.722 11.0555 32.2933 11.9683C32.8646 12.8812 33.1676 13.9364 33.1676 15.0133Z" fill="#F79E1B"/>
<path d="M32.62 18.5697V18.3849H32.6945V18.3473H32.5048V18.3849H32.5793V18.5697H32.62ZM32.9883 18.5697V18.3469H32.9302L32.8633 18.5001L32.7964 18.3469H32.7382V18.5697H32.7793V18.4016L32.842 18.5465H32.8846L32.9473 18.4013V18.5697H32.9883Z" fill="#F79E1B"/>
</g>
<defs>
<filter id="filter0_dd_157_2339" x="0.165376" y="0.583176" width="47.5544" height="35.42" filterUnits="userSpaceOnUse" color-interpolation-filters="sRGB">
<feFlood flood-opacity="0" result="BackgroundImageFix"/>
<feColorMatrix in="SourceAlpha" type="matrix" values="0 0 0 0 0 0 0 0 0 0 0 0 0 0 0 0 0 0 127 0" result="hardAlpha"/>
<feOffset dy="0.327962"/>
<feGaussianBlur stdDeviation="1.63981"/>
<feColorMatrix type="matrix" values="0 0 0 0 0.717647 0 0 0 0 0.717647 0 0 0 0 0.717647 0 0 0 0.08 0"/>
<feBlend mode="normal" in2="BackgroundImageFix" result="effect1_dropShadow_157_2339"/>
<feColorMatrix in="SourceAlpha" type="matrix" values="0 0 0 0 0 0 0 0 0 0 0 0 0 0 0 0 0 0 127 0" result="hardAlpha"/>
<feOffset dy="3.27962"/>
<feGaussianBlur stdDeviation="3.27962"/>
<feColorMatrix type="matrix" values="0 0 0 0 0.717647 0 0 0 0 0.717647 0 0 0 0 0.717647 0 0 0 0.08 0"/>
<feBlend mode="normal" in2="effect1_dropShadow_157_2339" result="effect2_dropShadow_157_2339"/>
<feBlend mode="normal" in="SourceGraphic" in2="effect2_dropShadow_157_2339" result="shape"/>
</filter>
</defs>
</svg>
