<svg width="48" height="36" viewBox="0 0 48 36" fill="none" xmlns="http://www.w3.org/2000/svg">
<g filter="url(#filter0_dd_157_2341)">
<rect x="6.77698" y="4.02686" width="34.108" height="21.9734" rx="3.93554" fill="white"/>
<rect x="6.69499" y="3.94487" width="34.272" height="22.1374" rx="4.01753" stroke="#D6DCE5" stroke-width="0.163981"/>
<path fill-rule="evenodd" clip-rule="evenodd" d="M14.2382 11.8164H12.2717C12.1372 11.8164 12.0227 11.9142 12.0017 12.047L11.2064 17.089C11.1906 17.1885 11.2677 17.2782 11.3686 17.2782H12.3074C12.442 17.2782 12.5564 17.1804 12.5774 17.0473L12.7919 15.6874C12.8126 15.5542 12.9273 15.4566 13.0616 15.4566H13.6841C14.9795 15.4566 15.7271 14.8298 15.9224 13.5878C16.0103 13.0444 15.9261 12.6175 15.6716 12.3184C15.3921 11.9901 14.8963 11.8164 14.2382 11.8164ZM14.4651 13.6579C14.3576 14.3635 13.8184 14.3635 13.2971 14.3635H13.0004L13.2085 13.0458C13.2209 12.9662 13.2899 12.9075 13.3704 12.9075H13.5064C13.8615 12.9075 14.1966 12.9075 14.3697 13.1099C14.4728 13.2307 14.5045 13.41 14.4651 13.6579ZM20.1164 13.6353H19.1747C19.0945 13.6353 19.0252 13.694 19.0128 13.7737L18.9712 14.037L18.9053 13.9416C18.7014 13.6457 18.2469 13.5468 17.7931 13.5468C16.7524 13.5468 15.8637 14.3349 15.6906 15.4404C15.6006 15.9917 15.7285 16.519 16.0414 16.8867C16.3284 17.2248 16.739 17.3657 17.2275 17.3657C18.0659 17.3657 18.531 16.8266 18.531 16.8266L18.4889 17.0883C18.4731 17.1884 18.5501 17.278 18.6505 17.278H19.4988C19.6337 17.278 19.7474 17.1802 19.7687 17.0472L20.2777 13.8245C20.2938 13.7254 20.217 13.6353 20.1164 13.6353ZM18.8038 15.4679C18.7129 16.0058 18.2859 16.3669 17.7414 16.3669C17.4679 16.3669 17.2493 16.2792 17.1091 16.1131C16.9699 15.9481 16.9169 15.7131 16.9612 15.4515C17.0461 14.9181 17.4803 14.5453 18.0166 14.5453C18.2839 14.5453 18.5013 14.6341 18.6445 14.8017C18.7879 14.9711 18.8449 15.2074 18.8038 15.4679ZM24.1854 13.6352H25.1317C25.2643 13.6352 25.3416 13.7838 25.2663 13.8925L22.1189 18.435C22.0679 18.5086 21.984 18.5524 21.8943 18.5524H20.9491C20.8161 18.5524 20.7384 18.4026 20.8154 18.2936L21.7954 16.9104L20.7531 13.8519C20.7171 13.7456 20.7956 13.6352 20.9087 13.6352H21.8385C21.9594 13.6352 22.066 13.7145 22.1008 13.8301L22.654 15.6773L23.9592 13.755C24.0103 13.68 24.0952 13.6352 24.1854 13.6352Z" fill="#253B80"/>
<path fill-rule="evenodd" clip-rule="evenodd" d="M34.4458 17.0885L35.2528 11.9543C35.2652 11.8746 35.3343 11.8159 35.4145 11.8157H36.3231C36.4234 11.8157 36.5004 11.9056 36.4846 12.0051L35.6888 17.0469C35.668 17.1799 35.5536 17.2777 35.4188 17.2777H34.6073C34.507 17.2777 34.43 17.188 34.4458 17.0885ZM28.2651 11.8159H26.2983C26.164 11.8159 26.0496 11.9137 26.0286 12.0465L25.2333 17.0885C25.2174 17.188 25.2945 17.2777 25.3949 17.2777H26.4041C26.4979 17.2777 26.5781 17.2093 26.5928 17.1162L26.8184 15.687C26.8392 15.5538 26.9539 15.4561 27.0882 15.4561H27.7104C29.006 15.4561 29.7534 14.8294 29.9489 13.5873C30.0371 13.044 29.9524 12.617 29.698 12.3179C29.4186 11.9897 28.9233 11.8159 28.2651 11.8159ZM28.492 13.6575C28.3847 14.363 27.8456 14.363 27.324 14.363H27.0275L27.236 13.0453C27.2484 12.9657 27.3168 12.9071 27.3975 12.9071H27.5335C27.8884 12.9071 28.2237 12.9071 28.3967 13.1094C28.5 13.2302 28.5314 13.4096 28.492 13.6575ZM34.1428 13.6348H33.2018C33.1209 13.6348 33.0522 13.6935 33.0401 13.7732L32.9985 14.0365L32.9323 13.9411C32.7285 13.6452 32.2742 13.5464 31.8205 13.5464C30.7798 13.5464 29.8913 14.3344 29.7182 15.4399C29.6285 15.9913 29.7558 16.5185 30.0687 16.8863C30.3562 17.2244 30.7663 17.3653 31.2548 17.3653C32.0932 17.3653 32.5582 16.8261 32.5582 16.8261L32.5162 17.0879C32.5004 17.1879 32.5775 17.2776 32.6784 17.2776H33.5263C33.6606 17.2776 33.775 17.1798 33.7961 17.0467L34.3053 13.824C34.3209 13.7249 34.2438 13.6348 34.1428 13.6348ZM32.8303 15.4675C32.7399 16.0054 32.3124 16.3665 31.7678 16.3665C31.4948 16.3665 31.2758 16.2788 31.1354 16.1126C30.9963 15.9476 30.944 15.7127 30.9877 15.4511C31.073 14.9177 31.5067 14.5449 32.0429 14.5449C32.3104 14.5449 32.5277 14.6336 32.671 14.8013C32.815 14.9706 32.8719 15.2069 32.8303 15.4675Z" fill="#179BD7"/>
</g>
<defs>
<filter id="filter0_dd_157_2341" x="0.0538034" y="0.583176" width="47.5544" height="35.42" filterUnits="userSpaceOnUse" color-interpolation-filters="sRGB">
<feFlood flood-opacity="0" result="BackgroundImageFix"/>
<feColorMatrix in="SourceAlpha" type="matrix" values="0 0 0 0 0 0 0 0 0 0 0 0 0 0 0 0 0 0 127 0" result="hardAlpha"/>
<feOffset dy="0.327962"/>
<feGaussianBlur stdDeviation="1.63981"/>
<feColorMatrix type="matrix" values="0 0 0 0 0.717647 0 0 0 0 0.717647 0 0 0 0 0.717647 0 0 0 0.08 0"/>
<feBlend mode="normal" in2="BackgroundImageFix" result="effect1_dropShadow_157_2341"/>
<feColorMatrix in="SourceAlpha" type="matrix" values="0 0 0 0 0 0 0 0 0 0 0 0 0 0 0 0 0 0 127 0" result="hardAlpha"/>
<feOffset dy="3.27962"/>
<feGaussianBlur stdDeviation="3.27962"/>
<feColorMatrix type="matrix" values="0 0 0 0 0.717647 0 0 0 0 0.717647 0 0 0 0 0.717647 0 0 0 0.08 0"/>
<feBlend mode="normal" in2="effect1_dropShadow_157_2341" result="effect2_dropShadow_157_2341"/>
<feBlend mode="normal" in="SourceGraphic" in2="effect2_dropShadow_157_2341" result="shape"/>
</filter>
</defs>
</svg>
