<svg width="21" height="24" viewBox="0 0 21 24" fill="none" xmlns="http://www.w3.org/2000/svg">
<path d="M17.4494 8.433L16.4558 18.3669C16.3056 19.8727 16.231 20.625 15.888 21.1939C15.5871 21.6948 15.1446 22.0953 14.6164 22.3449C14.0167 22.6276 13.262 22.6276 11.7479 22.6276H8.95629C7.44339 22.6276 6.68752 22.6276 6.0878 22.3437C5.55911 22.0943 5.1162 21.6938 4.81502 21.1928C4.47435 20.625 4.39864 19.8727 4.24723 18.3669L3.25479 8.433M12.1264 16.1217V10.2073M8.57777 16.1217V10.2073M1.48047 5.47579H6.93948M6.93948 5.47579L7.39607 2.31512C7.52855 1.74024 8.00644 1.33569 8.5553 1.33569H12.1489C12.6978 1.33569 13.1745 1.74024 13.3081 2.31512L13.7647 5.47579M6.93948 5.47579H13.7647M13.7647 5.47579H19.2237" stroke="#FF554D" stroke-width="1.77433" stroke-linecap="round" stroke-linejoin="round"/>
</svg>
