<svg width="29" height="30" viewBox="0 0 29 30" fill="none" xmlns="http://www.w3.org/2000/svg">
<path d="M21.4494 11.4329L20.4558 21.3668C20.3056 22.8726 20.231 23.6249 19.888 24.1939C19.5871 24.6947 19.1446 25.0952 18.6164 25.3448C18.0167 25.6275 17.262 25.6275 15.7479 25.6275H12.9563C11.4434 25.6275 10.6875 25.6275 10.0878 25.3436C9.55911 25.0942 9.1162 24.6937 8.81502 24.1927C8.47435 23.6249 8.39864 22.8726 8.24723 21.3668L7.25479 11.4329M16.1264 19.1217V13.2073M12.5778 19.1217V13.2073M5.48047 8.47573H10.9395M10.9395 8.47573L11.3961 5.31506C11.5286 4.74018 12.0064 4.33563 12.5553 4.33563H16.1489C16.6978 4.33563 17.1745 4.74018 17.3081 5.31506L17.7647 8.47573M10.9395 8.47573H17.7647M17.7647 8.47573H23.2237" stroke="#FF554D" stroke-width="1.77433" stroke-linecap="round" stroke-linejoin="round"/>
</svg>
