<svg width="300" height="69" viewBox="0 0 300 69" fill="none" xmlns="http://www.w3.org/2000/svg">
<path d="M7.5 21.25L0 11.25H35L42 21.25H7.5Z" fill="#FF554D"/>
<path d="M32 39.25L52.5 11.25L59 21.25L45.5 39.25H32Z" fill="#FF554D"/>
<path d="M32 28.25L11.5 57.25L4 48.75L18.5 28.25H32Z" fill="#FF554D"/>
<path d="M28.5 57.75L21 46.75L55.5 46.25L64 57.75H28.5Z" fill="#FF554D"/>
<path d="M79.5018 46.5V39.7255L90.8764 30.7485V30.1073H79.7527V23.0818H101.888V29.8564L90.3188 38.8333V39.4745H101.721V46.5H79.5018ZM115.718 47.2806C107.382 47.2806 103.312 43.8236 103.312 36.1291V23.0818H111.815V35.9339C111.815 38.5545 112.902 40.2273 115.718 40.2273C118.534 40.2273 119.677 38.5545 119.677 35.9339V23.0818H128.124V36.0733C128.124 43.8236 124.054 47.2806 115.718 47.2806ZM129.938 46.5V23.0818H139.585L146.331 34.7073H147.112V23.0818H155.336V46.5H145.885L138.915 34.8745H138.163V46.5H129.938ZM168.555 47.2806C160.164 47.2527 156.344 44.7436 156.595 38.4709H164.151C164.206 39.8648 165.377 40.6733 168.555 40.7291C171.288 40.757 172.458 40.0321 172.458 39.1958C172.458 38.7497 172.347 37.9691 170.228 37.6903L167.161 37.2164C162.757 36.5194 157.125 36.2127 157.125 29.9121C157.125 25.2006 160.889 22.3012 168.639 22.3012C175.553 22.3012 180.376 24.0855 180.181 31.0552H172.654C172.403 29.6891 171.204 28.8527 168.444 28.8527C166.074 28.8527 165.21 29.5218 165.21 30.3582C165.21 30.7485 165.405 31.5291 166.994 31.78L169.448 32.1703C174.159 32.9509 180.85 32.8673 180.85 39.5582C180.85 44.7994 176.835 47.3085 168.555 47.2806ZM206.388 23.0818V30.1073H198.08V46.5H189.633V30.1073H181.353V23.0818H206.388ZM219.939 47.2806C211.771 47.2806 206.557 42.3461 206.557 34.7909C206.557 27.2358 211.771 22.3012 219.939 22.3012C228.135 22.3012 233.349 27.2358 233.349 34.7909C233.349 42.3461 228.135 47.2806 219.939 47.2806ZM219.939 40.0042C222.643 40.0042 224.957 38.1921 224.957 34.7909C224.957 31.3897 222.643 29.5776 219.939 29.5776C217.263 29.5776 214.921 31.3897 214.921 34.7909C214.921 38.1921 217.263 40.0042 219.939 40.0042ZM259.729 46.5H251.449L248.494 40.757H243.197V46.5H234.778V23.0818H248.55C255.129 23.0818 258.865 25.8139 258.865 32.2261C258.865 35.2927 257.527 37.523 255.659 38.917L259.729 46.5ZM243.197 30.0794V34.4842H247.937C249.609 34.4842 250.418 33.6479 250.418 32.2818C250.418 30.9158 249.609 30.0794 247.937 30.0794H243.197ZM261.176 46.5V23.0818H282.726V29.8006H269.595V32.0867H282.224V37.4952H269.595V39.7533H282.726V46.5H261.176Z" fill="white"/>
</svg>
