<svg width="289" height="104" viewBox="0 0 289 104" fill="none" xmlns="http://www.w3.org/2000/svg">
<path d="M7.5 38.75L0 28.75H35L42 38.75H7.5Z" fill="#FF554D"/>
<path d="M32 56.75L52.5 28.75L59 38.75L45.5 56.75H32Z" fill="#FF554D"/>
<path d="M32 45.75L11.5 74.75L4 66.25L18.5 45.75H32Z" fill="#FF554D"/>
<path d="M28.5 75.25L21 64.25L55.5 63.75L64 75.25H28.5Z" fill="#FF554D"/>
<path d="M79.5018 64V57.2255L90.8764 48.2485V47.6073H79.7527V40.5818H101.888V47.3564L90.3188 56.3333V56.9745H101.721V64H79.5018ZM115.718 64.7806C107.382 64.7806 103.312 61.3236 103.312 53.6291V40.5818H111.815V53.4339C111.815 56.0545 112.902 57.7273 115.718 57.7273C118.534 57.7273 119.677 56.0545 119.677 53.4339V40.5818H128.124V53.5733C128.124 61.3236 124.054 64.7806 115.718 64.7806ZM129.938 64V40.5818H139.585L146.331 52.2073H147.112V40.5818H155.336V64H145.885L138.915 52.3745H138.163V64H129.938ZM168.555 64.7806C160.164 64.7527 156.344 62.2436 156.595 55.9709H164.151C164.206 57.3648 165.377 58.1733 168.555 58.2291C171.288 58.257 172.458 57.5321 172.458 56.6958C172.458 56.2497 172.347 55.4691 170.228 55.1903L167.161 54.7164C162.757 54.0194 157.125 53.7127 157.125 47.4121C157.125 42.7006 160.889 39.8012 168.639 39.8012C175.553 39.8012 180.376 41.5855 180.181 48.5552H172.654C172.403 47.1891 171.204 46.3527 168.444 46.3527C166.074 46.3527 165.21 47.0218 165.21 47.8582C165.21 48.2485 165.405 49.0291 166.994 49.28L169.448 49.6703C174.159 50.4509 180.85 50.3673 180.85 57.0582C180.85 62.2994 176.835 64.8085 168.555 64.7806ZM206.388 40.5818V47.6073H198.08V64H189.633V47.6073H181.353V40.5818H206.388ZM219.939 64.7806C211.771 64.7806 206.557 59.8461 206.557 52.2909C206.557 44.7358 211.771 39.8012 219.939 39.8012C228.135 39.8012 233.349 44.7358 233.349 52.2909C233.349 59.8461 228.135 64.7806 219.939 64.7806ZM219.939 57.5042C222.643 57.5042 224.957 55.6921 224.957 52.2909C224.957 48.8897 222.643 47.0776 219.939 47.0776C217.263 47.0776 214.921 48.8897 214.921 52.2909C214.921 55.6921 217.263 57.5042 219.939 57.5042ZM259.729 64H251.449L248.494 58.257H243.197V64H234.778V40.5818H248.55C255.129 40.5818 258.865 43.3139 258.865 49.7261C258.865 52.7927 257.527 55.023 255.659 56.417L259.729 64ZM243.197 47.5794V51.9842H247.937C249.609 51.9842 250.418 51.1479 250.418 49.7818C250.418 48.4158 249.609 47.5794 247.937 47.5794H243.197ZM261.176 64V40.5818H282.726V47.3006H269.595V49.5867H282.224V54.9952H269.595V57.2533H282.726V64H261.176Z" fill="black"/>
</svg>
