<?xml version="1.0" encoding="UTF-8"?>
<svg id="Camada_1" data-name="Camada 1" xmlns="http://www.w3.org/2000/svg" version="1.1" viewBox="0 0 372 104">
  <defs>
    <style>
      .cls-1 {
        fill: #050006;
      }

      .cls-1, .cls-2 {
        stroke-width: 0px;
      }

      .cls-2 {
        fill: #c75453;
      }
    </style>
  </defs>
  <path class="cls-2" d="M52.4,38.8l-6.8-10h31.7l6.3,10h-31.2Z"/>
  <path class="cls-2" d="M74.6,56.8l18.6-28,5.9,10-12.2,18h-12.2Z"/>
  <path class="cls-2" d="M74.6,45.8l-18.6,29-6.8-8.5,13.1-20.5h12.2Z"/>
  <path class="cls-2" d="M71.4,75.2l-6.8-11,31.2-.5,7.7,11.5h-32.2Z"/>
  <path class="cls-1" d="M123.2,64v-6.8l11.4-9v-.6h-11.1v-7h22.1v6.8l-11.6,9v.6h11.4v7h-22.2ZM159.4,64.8c-8.3,0-12.4-3.5-12.4-11.2v-13h8.5v12.9c0,2.6,1.1,4.3,3.9,4.3s4-1.7,4-4.3v-12.9h8.4v13c0,7.8-4.1,11.2-12.4,11.2ZM173.6,64v-23.4h9.6l6.7,11.6h.8v-11.6h8.2v23.4h-9.5l-7-11.6h-.8v11.6h-8.2ZM212.2,64.8c-8.4,0-12.2-2.5-12-8.8h7.6c0,1.4,1.2,2.2,4.4,2.3,2.7,0,3.9-.7,3.9-1.5s-.1-1.2-2.2-1.5l-3.1-.5c-4.4-.7-10-1-10-7.3s3.8-7.6,11.5-7.6,11.7,1.8,11.5,8.8h-7.5c-.3-1.4-1.4-2.2-4.2-2.2s-3.2.7-3.2,1.5.2,1.2,1.8,1.4l2.5.4c4.7.8,11.4.7,11.4,7.4s-4,7.8-12.3,7.7ZM250.1,40.6v7h-8.3v16.4h-8.4v-16.4h-8.3v-7h25ZM263.6,64.8c-8.2,0-13.4-4.9-13.4-12.5s5.2-12.5,13.4-12.5,13.4,4.9,13.4,12.5-5.2,12.5-13.4,12.5ZM263.6,57.5c2.7,0,5-1.8,5-5.2s-2.3-5.2-5-5.2-5,1.8-5,5.2,2.3,5.2,5,5.2ZM303.4,64h-8.3l-3-5.7h-5.3v5.7h-8.4v-23.4h13.8c6.6,0,10.3,2.7,10.3,9.1s-1.3,5.3-3.2,6.7l4.1,7.6ZM286.9,47.6v4.4h4.7c1.7,0,2.5-.8,2.5-2.2s-.8-2.2-2.5-2.2h-4.7ZM304.8,64v-23.4h21.6v6.7h-13.1v2.3h12.6v5.4h-12.6v2.3h13.1v6.7h-21.6Z"/>
</svg>