<svg width="61" height="61" viewBox="0 0 61 61" fill="none" xmlns="http://www.w3.org/2000/svg">
<circle cx="30.6616" cy="30.1591" r="30.1586" fill="#FF554D"/>
<circle cx="30.6616" cy="30.1591" r="29.0815" stroke="black" stroke-opacity="0.2" stroke-width="2.15419"/>
<path fill-rule="evenodd" clip-rule="evenodd" d="M31.9689 15.5679C24.2334 15.5679 18.01 21.7912 18.01 29.5268C18.01 35.692 22.0232 40.9266 27.5486 42.7878C28.2465 42.9041 28.4792 42.4969 28.4792 42.0898C28.4792 41.7408 28.4792 40.8684 28.4792 39.7052C24.5823 40.5776 23.7681 37.844 23.7681 37.844C23.1283 36.2154 22.1977 35.8083 22.1977 35.8083C20.9181 34.9359 22.314 34.9359 22.314 34.9359C23.7099 35.0522 24.466 36.3899 24.466 36.3899C25.6874 38.5419 27.7231 37.9021 28.5374 37.5532C28.6537 36.6226 29.0027 36.0409 29.4098 35.692C26.3272 35.343 23.0701 34.1216 23.0701 28.7707C23.0701 27.2585 23.5936 25.9789 24.5242 25.0483C24.4078 24.6993 23.8844 23.3034 24.6405 21.3259C24.6405 21.3259 25.8037 20.977 28.4792 22.78C29.5843 22.4892 30.8057 22.3147 31.9689 22.3147C33.1322 22.3147 34.3536 22.4892 35.4587 22.78C38.1341 20.977 39.2974 21.3259 39.2974 21.3259C40.0535 23.2453 39.5882 24.6412 39.4137 25.0483C40.2861 26.0371 40.8677 27.2585 40.8677 28.7707C40.8677 34.1216 37.6107 35.2848 34.4699 35.6338C34.9934 36.0409 35.4005 36.9134 35.4005 38.1929C35.4005 40.0541 35.4005 41.5663 35.4005 42.0316C35.4005 42.3806 35.6331 42.8459 36.3892 42.7296C41.9146 40.9266 45.9278 35.692 45.9278 29.5268C45.9278 21.7912 39.7045 15.5679 31.9689 15.5679Z" fill="white"/>
</svg>
