<svg width="61" height="61" viewBox="0 0 61 61" fill="none" xmlns="http://www.w3.org/2000/svg">
<circle cx="30.4941" cy="30.1591" r="30.1586" fill="#FF554D"/>
<circle cx="30.4941" cy="30.1591" r="29.0815" stroke="black" stroke-opacity="0.2" stroke-width="2.15419"/>
<path d="M30.4958 18.1974C34.3921 18.1974 34.8536 18.212 36.3928 18.2821C37.3182 18.2935 38.2349 18.4634 39.1029 18.7846C39.7323 19.0273 40.304 19.3992 40.781 19.8762C41.2581 20.3533 41.63 20.925 41.8727 21.5544C42.1939 22.4224 42.3638 23.3391 42.3751 24.2645C42.4446 25.8037 42.4599 26.2652 42.4599 30.1615C42.4599 34.0578 42.4453 34.5192 42.3751 36.0584C42.3638 36.9838 42.1939 37.9005 41.8727 38.7685C41.63 39.3979 41.2581 39.9696 40.781 40.4467C40.304 40.9237 39.7323 41.2956 39.1029 41.5383C38.2349 41.8595 37.3182 42.0294 36.3928 42.0408C34.8543 42.1102 34.3928 42.1255 30.4958 42.1255C26.5988 42.1255 26.1374 42.1109 24.5989 42.0408C23.6735 42.0294 22.7568 41.8595 21.8888 41.5383C21.2594 41.2956 20.6877 40.9237 20.2106 40.4467C19.7336 39.9696 19.3617 39.3979 19.1189 38.7685C18.7978 37.9005 18.6279 36.9838 18.6165 36.0584C18.547 34.5192 18.5318 34.0578 18.5318 30.1615C18.5318 26.2652 18.5464 25.8037 18.6165 24.2645C18.6279 23.3391 18.7978 22.4224 19.1189 21.5544C19.3617 20.925 19.7336 20.3533 20.2106 19.8762C20.6877 19.3992 21.2594 19.0273 21.8888 18.7846C22.7568 18.4634 23.6735 18.2935 24.5989 18.2821C26.1381 18.2127 26.5995 18.1974 30.4958 18.1974V18.1974ZM30.4958 15.5679C26.5349 15.5679 26.036 15.5845 24.4794 15.6554C23.2682 15.6795 22.0699 15.9088 20.9354 16.3337C19.9622 16.7003 19.0807 17.2749 18.3525 18.0174C17.6093 18.7459 17.0342 19.6279 16.6673 20.6017C16.2425 21.7362 16.0132 22.9345 15.9891 24.1457C15.9196 25.7009 15.903 26.1998 15.903 30.1608C15.903 34.1217 15.9196 34.6206 15.9905 36.1772C16.0146 37.3884 16.2439 38.5867 16.6687 39.7212C17.0352 40.6949 17.6099 41.5769 18.3525 42.3055C19.0811 43.0481 19.9631 43.6228 20.9368 43.9893C22.0713 44.4141 23.2696 44.6434 24.4808 44.6675C26.0374 44.737 26.5342 44.755 30.4972 44.755C34.4602 44.755 34.9571 44.7384 36.5137 44.6675C37.7248 44.6434 38.9232 44.4141 40.0577 43.9893C41.0267 43.6136 41.9068 43.0399 42.6415 42.3047C43.3762 41.5695 43.9493 40.6891 44.3243 39.7198C44.7491 38.5853 44.9785 37.387 45.0026 36.1758C45.0721 34.6206 45.0887 34.1217 45.0887 30.1608C45.0887 26.1998 45.0721 25.7009 45.0012 24.1443C44.9771 22.9331 44.7478 21.7348 44.3229 20.6003C43.9565 19.6266 43.3818 18.7447 42.6392 18.016C41.9106 17.2734 41.0286 16.6988 40.0549 16.3323C38.9204 15.9075 37.7221 15.6781 36.5109 15.654C34.9557 15.5845 34.4568 15.5679 30.4958 15.5679Z" fill="white"/>
<path d="M30.4989 22.6699C29.0168 22.6699 27.5679 23.1094 26.3356 23.9329C25.1032 24.7563 24.1427 25.9267 23.5756 27.296C23.0084 28.6653 22.86 30.172 23.1491 31.6257C23.4383 33.0793 24.152 34.4146 25.2 35.4626C26.248 36.5107 27.5833 37.2244 29.037 37.5135C30.4906 37.8027 31.9974 37.6543 33.3667 37.0871C34.736 36.5199 35.9064 35.5594 36.7298 34.327C37.5532 33.0947 37.9927 31.6458 37.9927 30.1637C37.9927 28.1762 37.2032 26.2702 35.7978 24.8648C34.3925 23.4594 32.4864 22.6699 30.4989 22.6699ZM30.4989 35.028C29.5369 35.028 28.5964 34.7427 27.7965 34.2082C26.9965 33.6737 26.3731 32.914 26.0049 32.0252C25.6367 31.1364 25.5404 30.1583 25.7281 29.2147C25.9158 28.2712 26.3791 27.4044 27.0593 26.7241C27.7396 26.0439 28.6064 25.5806 29.5499 25.3929C30.4935 25.2052 31.4716 25.3015 32.3604 25.6697C33.2492 26.0379 34.0089 26.6613 34.5434 27.4613C35.0779 28.2612 35.3632 29.2016 35.3632 30.1637C35.3632 31.4538 34.8507 32.6911 33.9385 33.6033C33.0263 34.5155 31.789 35.028 30.4989 35.028V35.028Z" fill="white"/>
<path d="M38.2873 24.1234C39.2544 24.1234 40.0384 23.3394 40.0384 22.3722C40.0384 21.4051 39.2544 20.6211 38.2873 20.6211C37.3201 20.6211 36.5361 21.4051 36.5361 22.3722C36.5361 23.3394 37.3201 24.1234 38.2873 24.1234Z" fill="white"/>
</svg>
