<svg width="61" height="61" viewBox="0 0 61 61" fill="none" xmlns="http://www.w3.org/2000/svg">
<circle cx="30.159" cy="30.1591" r="30.1586" fill="#FF554D"/>
<circle cx="30.159" cy="30.1591" r="29.0815" stroke="black" stroke-opacity="0.2" stroke-width="2.15419"/>
<path d="M43.5303 23.6602C42.6277 24.0614 41.6749 24.3121 40.6719 24.4626C41.6749 23.8608 42.4772 22.908 42.8283 21.7546C41.8755 22.3062 40.8224 22.7074 39.669 22.9581C38.7663 22.0053 37.4625 21.4036 36.0584 21.4036C33.3504 21.4036 31.1439 23.61 31.1439 26.318C31.1439 26.7192 31.1941 27.0702 31.2944 27.4212C27.2324 27.2207 23.5717 25.2649 21.1145 22.2561C20.7133 23.0083 20.4625 23.8106 20.4625 24.7133C20.4625 26.4183 21.315 27.9227 22.669 28.8254C21.8667 28.7752 21.1145 28.5746 20.4124 28.2236V28.2738C20.4124 30.6808 22.1174 32.6867 24.374 33.1381C23.9729 33.2383 23.5215 33.2885 23.0702 33.2885C22.7693 33.2885 22.4183 33.2383 22.1174 33.1882C22.7693 35.1439 24.5746 36.5982 26.731 36.5982C25.026 37.9021 22.9198 38.7044 20.613 38.7044C20.2118 38.7044 19.8106 38.7044 19.4596 38.6543C21.6661 40.0584 24.2236 40.8607 27.0318 40.8607C36.1085 40.8607 41.0731 33.3386 41.0731 26.8195C41.0731 26.6189 41.0731 26.3682 41.0731 26.1676C42.0259 25.5156 42.8784 24.6631 43.5303 23.6602Z" fill="white"/>
</svg>
